<?xml version="1.0" encoding="iso-8859-1"?>
<!-- Uploaded to: SVG Repo, www.svgrepo.com, Generator: SVG Repo Mixer Tools -->
<svg version="1.1" id="Layer_1" xmlns="http://www.w3.org/2000/svg" xmlns:xlink="http://www.w3.org/1999/xlink" 
	 viewBox="0 0 512 512" xml:space="preserve">
<path style="fill:#2D2D2D;" d="M0,355.272V31.352c0-5.744,4.704-10.448,10.448-10.448h491.104c5.744,0,10.448,4.704,10.448,10.448
	v323.92"/>
<g>
	<path style="fill:#E0E0E0;" d="M0,355.272v41.8c0,5.744,4.704,10.448,10.448,10.448h491.104c5.744,0,10.448-4.704,10.448-10.448
		v-41.8H0z"/>
	<rect x="146.28" y="480.648" style="fill:#E0E0E0;" width="219.432" height="10.448"/>
</g>
<polygon style="fill:#999999;" points="329.144,480.664 182.856,480.664 193.304,407.52 318.696,407.52 "/>
<rect x="20.896" y="41.8" style="fill:#2D2D2D;" width="470.2" height="292.576"/>
<polygon style="fill:#DB2B42;" points="74.072,20.904 74.072,278.936 144.456,223.56 144.456,20.904 "/>
<polygon style="fill:#EA5A74;" points="214.848,20.904 214.848,278.936 144.456,223.56 144.456,20.904 "/>
<rect x="262.664" y="113.208" style="fill:#FFFFFF;" width="184" height="16"/>
<g>
	<rect x="262.664" y="163.856" style="fill:#6CB8BC;" width="184" height="16"/>
	<rect x="262.664" y="195.592" style="fill:#6CB8BC;" width="184" height="16"/>
	<rect x="262.664" y="227.32" style="fill:#6CB8BC;" width="184" height="16"/>
	<rect x="262.664" y="259.056" style="fill:#6CB8BC;" width="184" height="16"/>
</g>
</svg>